<svg id="visual" viewBox="0 0 900 600" width="900" height="600" xmlns="http://www.w3.org/2000/svg" xmlns:xlink="http://www.w3.org/1999/xlink" version="1.1"><rect x="0" y="0" width="900" height="600" fill="#001220"></rect><path d="M0 361L21.5 364C43 367 86 373 128.8 387.3C171.7 401.7 214.3 424.3 257.2 432C300 439.7 343 432.3 385.8 423.5C428.7 414.7 471.3 404.3 514.2 407C557 409.7 600 425.3 642.8 428.2C685.7 431 728.3 421 771.2 406C814 391 857 371 878.5 361L900 351L900 601L878.5 601C857 601 814 601 771.2 601C728.3 601 685.7 601 642.8 601C600 601 557 601 514.2 601C471.3 601 428.7 601 385.8 601C343 601 300 601 257.2 601C214.3 601 171.7 601 128.8 601C86 601 43 601 21.5 601L0 601Z" fill="#fa7268"></path><path d="M0 460L21.5 455.8C43 451.7 86 443.3 128.8 437.5C171.7 431.7 214.3 428.3 257.2 430.5C300 432.7 343 440.3 385.8 447.8C428.7 455.3 471.3 462.7 514.2 460C557 457.3 600 444.7 642.8 446C685.7 447.3 728.3 462.7 771.2 456.5C814 450.3 857 422.7 878.5 408.8L900 395L900 601L878.5 601C857 601 814 601 771.2 601C728.3 601 685.7 601 642.8 601C600 601 557 601 514.2 601C471.3 601 428.7 601 385.8 601C343 601 300 601 257.2 601C214.3 601 171.7 601 128.8 601C86 601 43 601 21.5 601L0 601Z" fill="#ef5f67"></path><path d="M0 468L21.5 472.2C43 476.3 86 484.7 128.8 481.3C171.7 478 214.3 463 257.2 462.5C300 462 343 476 385.8 483.3C428.7 490.7 471.3 491.3 514.2 494.2C557 497 600 502 642.8 493.3C685.7 484.7 728.3 462.3 771.2 452.5C814 442.7 857 445.3 878.5 446.7L900 448L900 601L878.5 601C857 601 814 601 771.2 601C728.3 601 685.7 601 642.8 601C600 601 557 601 514.2 601C471.3 601 428.7 601 385.8 601C343 601 300 601 257.2 601C214.3 601 171.7 601 128.8 601C86 601 43 601 21.5 601L0 601Z" fill="#e34c67"></path><path d="M0 522L21.5 516.7C43 511.3 86 500.7 128.8 499.3C171.7 498 214.3 506 257.2 504.3C300 502.7 343 491.3 385.8 486.8C428.7 482.3 471.3 484.7 514.2 491.8C557 499 600 511 642.8 511.7C685.7 512.3 728.3 501.7 771.2 500.7C814 499.7 857 508.3 878.5 512.7L900 517L900 601L878.5 601C857 601 814 601 771.2 601C728.3 601 685.7 601 642.8 601C600 601 557 601 514.2 601C471.3 601 428.7 601 385.8 601C343 601 300 601 257.2 601C214.3 601 171.7 601 128.8 601C86 601 43 601 21.5 601L0 601Z" fill="#d53867"></path><path d="M0 535L21.5 538.3C43 541.7 86 548.3 128.8 550.5C171.7 552.7 214.3 550.3 257.2 550.8C300 551.3 343 554.7 385.8 554.8C428.7 555 471.3 552 514.2 554.5C557 557 600 565 642.8 565.7C685.7 566.3 728.3 559.7 771.2 557.5C814 555.3 857 557.7 878.5 558.8L900 560L900 601L878.5 601C857 601 814 601 771.2 601C728.3 601 685.7 601 642.8 601C600 601 557 601 514.2 601C471.3 601 428.7 601 385.8 601C343 601 300 601 257.2 601C214.3 601 171.7 601 128.8 601C86 601 43 601 21.5 601L0 601Z" fill="#c62368"></path></svg>